<svg xmlns="http://www.w3.org/2000/svg" xmlns:xlink="http://www.w3.org/1999/xlink" contentStyleType="text/css" height="599px" preserveAspectRatio="none" style="width:969px;height:599px;background:#FFFFFF;" version="1.1" viewBox="0 0 969 599" width="969px" zoomAndPan="magnify"><defs/><g><text fill="#000000" font-family="sans-serif" font-size="14" font-weight="bold" lengthAdjust="spacing" textLength="238.5605" x="364.5464" y="27.9951">&#1048;&#1075;&#1088;&#1072; &#1085;&#1072; &#1075;&#1080;&#1090;&#1072;&#1088;&#1077;: &#1087;&#1077;&#1088;&#1074;&#1099;&#1077; &#1096;&#1072;&#1075;&#1080;</text><rect fill="#FFFFFF" height="88.2656" style="stroke:#181818;stroke-width:1.0;" width="10" x="176.3652" y="207.9922"/><rect fill="#FFFFFF" height="117.3984" style="stroke:#181818;stroke-width:1.0;" width="10" x="330.4014" y="266.2578"/><rect fill="#FFFFFF" height="30" style="stroke:#181818;stroke-width:1.0;" width="10" x="330.4014" y="441.9219"/><rect fill="#FFFFFF" height="88.2656" style="stroke:#181818;stroke-width:1.0;" width="10" x="436.752" y="237.125"/><rect fill="#FFFFFF" height="233.9297" style="stroke:#181818;stroke-width:1.0;" width="10" x="640.2705" y="149.7266"/><rect fill="#FFFFFF" height="88.2656" style="stroke:#181818;stroke-width:1.0;" width="10" x="885.9736" y="412.7891"/><line style="stroke:#181818;stroke-width:0.5;stroke-dasharray:5.0,5.0;" x1="34" x2="34" y1="118.5938" y2="519.0547"/><line style="stroke:#181818;stroke-width:0.5;stroke-dasharray:5.0,5.0;" x1="181.2207" x2="181.2207" y1="118.5938" y2="519.0547"/><line style="stroke:#181818;stroke-width:0.5;stroke-dasharray:5.0,5.0;" x1="334.4829" x2="334.4829" y1="118.5938" y2="519.0547"/><line style="stroke:#181818;stroke-width:0.5;stroke-dasharray:5.0,5.0;" x1="441.2568" x2="441.2568" y1="118.5938" y2="519.0547"/><line style="stroke:#181818;stroke-width:0.5;stroke-dasharray:5.0,5.0;" x1="645.2471" x2="645.2471" y1="118.5938" y2="519.0547"/><line style="stroke:#181818;stroke-width:0.5;stroke-dasharray:5.0,5.0;" x1="890.2939" x2="890.2939" y1="118.5938" y2="519.0547"/><text fill="#000000" font-family="sans-serif" font-size="14" lengthAdjust="spacing" textLength="52.124" x="5" y="115.292">&#1059;&#1095;&#1077;&#1085;&#1080;&#1082;</text><ellipse cx="34.062" cy="50.7969" fill="#E2E2F0" rx="8" ry="8" style="stroke:#181818;stroke-width:0.5;"/><path d="M34.062,58.7969 L34.062,85.7969 M21.062,66.7969 L47.062,66.7969 M34.062,85.7969 L21.062,100.7969 M34.062,85.7969 L47.062,100.7969 " fill="none" style="stroke:#181818;stroke-width:0.5;"/><text fill="#000000" font-family="sans-serif" font-size="14" lengthAdjust="spacing" textLength="52.124" x="5" y="531.0498">&#1059;&#1095;&#1077;&#1085;&#1080;&#1082;</text><ellipse cx="34.062" cy="542.8516" fill="#E2E2F0" rx="8" ry="8" style="stroke:#181818;stroke-width:0.5;"/><path d="M34.062,550.8516 L34.062,577.8516 M21.062,558.8516 L47.062,558.8516 M34.062,577.8516 L21.062,592.8516 M34.062,577.8516 L47.062,592.8516 " fill="none" style="stroke:#181818;stroke-width:0.5;"/><rect fill="#E2E2F0" height="30.2969" rx="2.5" ry="2.5" style="stroke:#181818;stroke-width:0.5;" width="76.2891" x="143.2207" y="87.2969"/><text fill="#000000" font-family="sans-serif" font-size="14" lengthAdjust="spacing" textLength="62.2891" x="150.2207" y="107.292">&#1052;&#1072;&#1075;&#1072;&#1079;&#1080;&#1085;</text><rect fill="#E2E2F0" height="30.2969" rx="2.5" ry="2.5" style="stroke:#181818;stroke-width:0.5;" width="76.2891" x="143.2207" y="518.0547"/><text fill="#000000" font-family="sans-serif" font-size="14" lengthAdjust="spacing" textLength="62.2891" x="150.2207" y="538.0498">&#1052;&#1072;&#1075;&#1072;&#1079;&#1080;&#1085;</text><rect fill="#E2E2F0" height="30.2969" rx="2.5" ry="2.5" style="stroke:#181818;stroke-width:0.5;" width="65.8369" x="302.4829" y="87.2969"/><text fill="#000000" font-family="sans-serif" font-size="14" lengthAdjust="spacing" textLength="51.8369" x="309.4829" y="107.292">&#1043;&#1080;&#1090;&#1072;&#1088;&#1072;</text><rect fill="#E2E2F0" height="30.2969" rx="2.5" ry="2.5" style="stroke:#181818;stroke-width:0.5;" width="65.8369" x="302.4829" y="518.0547"/><text fill="#000000" font-family="sans-serif" font-size="14" lengthAdjust="spacing" textLength="51.8369" x="309.4829" y="538.0498">&#1043;&#1080;&#1090;&#1072;&#1088;&#1072;</text><rect fill="#E2E2F0" height="30.2969" rx="2.5" ry="2.5" style="stroke:#181818;stroke-width:0.5;" width="60.9902" x="411.2568" y="87.2969"/><text fill="#000000" font-family="sans-serif" font-size="14" lengthAdjust="spacing" textLength="46.9902" x="418.2568" y="107.292">&#1058;&#1102;&#1085;&#1077;&#1088;</text><rect fill="#E2E2F0" height="30.2969" rx="2.5" ry="2.5" style="stroke:#181818;stroke-width:0.5;" width="60.9902" x="411.2568" y="518.0547"/><text fill="#000000" font-family="sans-serif" font-size="14" lengthAdjust="spacing" textLength="46.9902" x="418.2568" y="538.0498">&#1058;&#1102;&#1085;&#1077;&#1088;</text><rect fill="#E2E2F0" height="30.2969" rx="2.5" ry="2.5" style="stroke:#181818;stroke-width:0.5;" width="326.0469" x="482.2471" y="87.2969"/><text fill="#000000" font-family="sans-serif" font-size="14" lengthAdjust="spacing" textLength="312.0469" x="489.2471" y="107.292">&#1048;&#1089;&#1090;&#1086;&#1095;&#1085;&#1080;&#1082;&#1080; &#1080;&#1085;&#1092;&#1086;&#1088;&#1084;&#1072;&#1094;&#1080;&#1080; (&#1086;&#1085;&#1083;&#1072;&#1081;&#1085;, &#1086;&#1092;&#1083;&#1072;&#1081;&#1085;)</text><rect fill="#E2E2F0" height="30.2969" rx="2.5" ry="2.5" style="stroke:#181818;stroke-width:0.5;" width="326.0469" x="482.2471" y="518.0547"/><text fill="#000000" font-family="sans-serif" font-size="14" lengthAdjust="spacing" textLength="312.0469" x="489.2471" y="538.0498">&#1048;&#1089;&#1090;&#1086;&#1095;&#1085;&#1080;&#1082;&#1080; &#1080;&#1085;&#1092;&#1086;&#1088;&#1084;&#1072;&#1094;&#1080;&#1080; (&#1086;&#1085;&#1083;&#1072;&#1081;&#1085;, &#1086;&#1092;&#1083;&#1072;&#1081;&#1085;)</text><rect fill="#E2E2F0" height="30.2969" rx="2.5" ry="2.5" style="stroke:#181818;stroke-width:0.5;" width="145.3594" x="818.2939" y="87.2969"/><text fill="#000000" font-family="sans-serif" font-size="14" lengthAdjust="spacing" textLength="131.3594" x="825.2939" y="107.292">&#1064;&#1082;&#1086;&#1083;&#1072;/&#1085;&#1072;&#1089;&#1090;&#1072;&#1074;&#1085;&#1080;&#1082;</text><rect fill="#E2E2F0" height="30.2969" rx="2.5" ry="2.5" style="stroke:#181818;stroke-width:0.5;" width="145.3594" x="818.2939" y="518.0547"/><text fill="#000000" font-family="sans-serif" font-size="14" lengthAdjust="spacing" textLength="131.3594" x="825.2939" y="538.0498">&#1064;&#1082;&#1086;&#1083;&#1072;/&#1085;&#1072;&#1089;&#1090;&#1072;&#1074;&#1085;&#1080;&#1082;</text><rect fill="#FFFFFF" height="88.2656" style="stroke:#181818;stroke-width:1.0;" width="10" x="176.3652" y="207.9922"/><rect fill="#FFFFFF" height="117.3984" style="stroke:#181818;stroke-width:1.0;" width="10" x="330.4014" y="266.2578"/><rect fill="#FFFFFF" height="30" style="stroke:#181818;stroke-width:1.0;" width="10" x="330.4014" y="441.9219"/><rect fill="#FFFFFF" height="88.2656" style="stroke:#181818;stroke-width:1.0;" width="10" x="436.752" y="237.125"/><rect fill="#FFFFFF" height="233.9297" style="stroke:#181818;stroke-width:1.0;" width="10" x="640.2705" y="149.7266"/><rect fill="#FFFFFF" height="88.2656" style="stroke:#181818;stroke-width:1.0;" width="10" x="885.9736" y="412.7891"/><polygon fill="#181818" points="628.2705,145.7266,638.2705,149.7266,628.2705,153.7266,632.2705,149.7266" style="stroke:#181818;stroke-width:1.0;"/><line style="stroke:#181818;stroke-width:1.0;" x1="34.062" x2="634.2705" y1="149.7266" y2="149.7266"/><text fill="#000000" font-family="sans-serif" font-size="13" lengthAdjust="spacing" textLength="262.082" x="41.062" y="144.6606">&#1054;&#1079;&#1085;&#1072;&#1082;&#1086;&#1084;&#1083;&#1077;&#1085;&#1080;&#1077; &#1089; &#1074;&#1080;&#1076;&#1072;&#1084;&#1080; &#1075;&#1080;&#1090;&#1072;&#1088;. &#1042;&#1099;&#1073;&#1086;&#1088;</text><polygon fill="#181818" points="628.2705,174.8594,638.2705,178.8594,628.2705,182.8594,632.2705,178.8594" style="stroke:#181818;stroke-width:1.0;"/><line style="stroke:#181818;stroke-width:1.0;" x1="34.062" x2="634.2705" y1="178.8594" y2="178.8594"/><text fill="#000000" font-family="sans-serif" font-size="13" lengthAdjust="spacing" textLength="117.7617" x="41.062" y="173.7935">&#1048;&#1079;&#1091;&#1095;&#1077;&#1085;&#1080;&#1077; &#1090;&#1077;&#1086;&#1088;&#1080;&#1080;</text><polygon fill="#181818" points="164.3652,203.9922,174.3652,207.9922,164.3652,211.9922,168.3652,207.9922" style="stroke:#181818;stroke-width:1.0;"/><line style="stroke:#181818;stroke-width:1.0;" x1="34.062" x2="170.3652" y1="207.9922" y2="207.9922"/><text fill="#000000" font-family="sans-serif" font-size="13" lengthAdjust="spacing" textLength="123.3032" x="41.062" y="202.9263">&#1055;&#1088;&#1080;&#1081;&#1090;&#1080; &#1074; &#1084;&#1072;&#1075;&#1072;&#1079;&#1080;&#1085;</text><polygon fill="#181818" points="424.752,233.125,434.752,237.125,424.752,241.125,428.752,237.125" style="stroke:#181818;stroke-width:1.0;"/><line style="stroke:#181818;stroke-width:1.0;" x1="186.3652" x2="430.752" y1="237.125" y2="237.125"/><text fill="#000000" font-family="sans-serif" font-size="13" lengthAdjust="spacing" textLength="96.5034" x="193.3652" y="232.0591">&#1050;&#1091;&#1087;&#1080;&#1090;&#1100; &#1090;&#1102;&#1085;&#1077;&#1088;</text><polygon fill="#181818" points="318.4014,262.2578,328.4014,266.2578,318.4014,270.2578,322.4014,266.2578" style="stroke:#181818;stroke-width:1.0;"/><line style="stroke:#181818;stroke-width:1.0;" x1="186.3652" x2="324.4014" y1="266.2578" y2="266.2578"/><text fill="#000000" font-family="sans-serif" font-size="13" lengthAdjust="spacing" textLength="125.0361" x="193.3652" y="261.1919">&#1055;&#1086;&#1076;&#1086;&#1073;&#1088;&#1072;&#1090;&#1100; &#1075;&#1080;&#1090;&#1072;&#1088;&#1091;</text><polygon fill="#181818" points="351.4014,321.3906,341.4014,325.3906,351.4014,329.3906,347.4014,325.3906" style="stroke:#181818;stroke-width:1.0;"/><line style="stroke:#181818;stroke-width:1.0;" x1="345.4014" x2="440.752" y1="325.3906" y2="325.3906"/><text fill="#000000" font-family="sans-serif" font-size="13" lengthAdjust="spacing" textLength="72.3506" x="357.4014" y="320.3247">&#1053;&#1072;&#1089;&#1090;&#1088;&#1086;&#1080;&#1090;&#1100;</text><polygon fill="#181818" points="318.4014,350.5234,328.4014,354.5234,318.4014,358.5234,322.4014,354.5234" style="stroke:#181818;stroke-width:1.0;"/><line style="stroke:#181818;stroke-width:1.0;" x1="34.062" x2="324.4014" y1="354.5234" y2="354.5234"/><text fill="#000000" font-family="sans-serif" font-size="13" lengthAdjust="spacing" textLength="212.4814" x="41.062" y="349.4575">&#1055;&#1088;&#1072;&#1082;&#1090;&#1080;&#1082;&#1072;. &#1055;&#1088;&#1080;&#1084;&#1077;&#1085;&#1077;&#1085;&#1080;&#1077; &#1090;&#1077;&#1086;&#1088;&#1080;&#1080;</text><polygon fill="#181818" points="346.4014,379.6563,336.4014,383.6563,346.4014,387.6563,342.4014,383.6563" style="stroke:#181818;stroke-width:1.0;"/><line style="stroke:#181818;stroke-width:1.0;stroke-dasharray:2.0,2.0;" x1="340.4014" x2="644.2705" y1="383.6563" y2="383.6563"/><text fill="#000000" font-family="sans-serif" font-size="13" lengthAdjust="spacing" textLength="212.4814" x="352.4014" y="378.5903">&#1055;&#1088;&#1072;&#1082;&#1090;&#1080;&#1082;&#1072;. &#1055;&#1088;&#1080;&#1084;&#1077;&#1085;&#1077;&#1085;&#1080;&#1077; &#1090;&#1077;&#1086;&#1088;&#1080;&#1080;</text><polygon fill="#181818" points="873.9736,408.7891,883.9736,412.7891,873.9736,416.7891,877.9736,412.7891" style="stroke:#181818;stroke-width:1.0;"/><line style="stroke:#181818;stroke-width:1.0;" x1="34.062" x2="879.9736" y1="412.7891" y2="412.7891"/><text fill="#000000" font-family="sans-serif" font-size="13" lengthAdjust="spacing" textLength="183.7456" x="41.062" y="407.7231">&#1047;&#1072;&#1076;&#1072;&#1090;&#1100; &#1074;&#1086;&#1087;&#1088;&#1086;&#1089;&#1099; &#1087;&#1086; &#1090;&#1077;&#1086;&#1088;&#1080;&#1080;</text><polygon fill="#181818" points="351.4014,437.9219,341.4014,441.9219,351.4014,445.9219,347.4014,441.9219" style="stroke:#181818;stroke-width:1.0;"/><line style="stroke:#181818;stroke-width:1.0;" x1="345.4014" x2="884.9736" y1="441.9219" y2="441.9219"/><text fill="#000000" font-family="sans-serif" font-size="13" lengthAdjust="spacing" textLength="141.9844" x="357.4014" y="436.856">&#1055;&#1088;&#1086;&#1074;&#1077;&#1088;&#1082;&#1072; &#1085;&#1072;&#1089;&#1090;&#1088;&#1086;&#1081;&#1082;&#1080;</text><polygon fill="#181818" points="45.062,497.0547,35.062,501.0547,45.062,505.0547,41.062,501.0547" style="stroke:#181818;stroke-width:1.0;"/><line style="stroke:#181818;stroke-width:1.0;stroke-dasharray:2.0,2.0;" x1="39.062" x2="889.9736" y1="501.0547" y2="501.0547"/><text fill="#000000" font-family="sans-serif" font-size="13" lengthAdjust="spacing" textLength="395.0464" x="51.062" y="495.9888">&#1054;&#1090;&#1074;&#1077;&#1090;&#1080;&#1090;&#1100; &#1085;&#1072; &#1074;&#1086;&#1087;&#1088;&#1086;&#1089;&#1099;. &#1048;&#1089;&#1087;&#1088;&#1072;&#1074;&#1080;&#1090;&#1100; &#1086;&#1096;&#1080;&#1073;&#1082;&#1080; &#1074; &#1090;&#1077;&#1093;&#1085;&#1080;&#1082;&#1077; &#1080;&#1075;&#1088;&#1099;</text><!--SRC=[fLJBJi9G4DttAsvSQH3Sit1hNAiVq2269WO8LjUyV2GO5xhG61-9RbnMfA5WARymzuyyC_Us57Jd0jBRU-RCcJCpzJt_kAheWRvqcm95C_xxeaXtAS2RiAneJY6UXdf0eT9N5F2rurRyHakjqRk-f11H4KtNb7kY3awgBQVfjdoluZNTkW_8auG4D0Pe9g2zMgEv0hhBKWO2sJdrV7ULwKtV81NK26J_jFuhruFkW2Q1A954aUAakezNROh1Vu5pfDOf0U0ReYOqsrIuxQUd3U7UhHyrLgW_G9SmQejDaZm13NEbxrVTIWsA7FP05RU5f520Wo-e7J5248F260OtEmeC4Orm5xFMpFYIebiO_icwb_ZAtAknxcMsWwMBHwuFbJcBx6noeQ0Gy2ft4-2GOgZOXqL37COnNkmq0O-wXwv3Yhu6UsfwXZIziTmeQOJV9tTE0XP5w9vp24zyxyprgwRfacJ1mGpFnap49oPbFiZqEAl9HDcIu2UN15U3KbfaBAxywGoxfuh_9Cb9inEQUoD3aqgrqo3zlqUQKMhF47NEkLfKFU3jIfPJsC2yqLPhWbXUnQbTrCos2K_w7zeoAd2nBXv5v6AMhcslMVWbJV01QoHd7d2BIx3w4GPoQeQ89UjpksKXRna-87gmr3kJ_GS0]--></g></svg>